<svg width="74" height="96" viewBox="0 0 74 96" fill="none" xmlns="http://www.w3.org/2000/svg">
<path d="M36.9548 19.6546C20.8344 19.6546 12.4512 32.2166 12.5935 44.7786C12.7911 63.0631 30.8719 69.9025 36.9548 95.0223C43.051 69.8984 61.3498 62.6618 61.3498 44.7786C61.3498 32.2166 51.8815 19.6546 36.9629 19.6546H36.9548ZM36.9885 25.9351L51.2253 40.1719H22.7518L36.9885 25.9351V25.9351ZM26.9142 41.9552H47.0383V62.1038H26.9142V41.9552ZM30.3426 45.3836V51.0365H35.9699V45.3836H30.3426ZM37.9846 45.3836V51.0365H43.6375V45.3836H37.9846ZM30.3426 53.0256V58.6785H35.9699V53.0256H30.3426ZM37.9846 53.0256V58.6785H43.6375V53.0256H37.9846ZM67.2535 22.865L65.7098 27.614C64.0616 27.6109 62.2773 27.6181 60.71 27.6181C62.0633 28.6019 63.4545 29.6143 64.7516 30.5551C64.2448 32.1214 63.692 33.8197 63.2078 35.3072C64.5028 34.3623 65.8807 33.3693 67.2535 32.3732C68.601 33.3509 69.9482 34.3289 71.2951 35.3072C70.7925 33.7696 70.2755 32.1726 69.7514 30.5551C71.0853 29.5887 72.5287 28.5384 73.7971 27.6181H68.8004L67.2535 22.865ZM6.72047 22.865L5.17672 27.614C3.52854 27.6109 1.74421 27.6181 0.17691 27.6181C1.53026 28.6019 2.92148 29.6143 4.21852 30.5551C3.71178 32.1214 3.15898 33.8197 2.67477 35.3072C3.96976 34.3623 5.34767 33.3693 6.72047 32.3732C8.06792 33.3509 9.41513 34.3289 10.7621 35.3072C10.2594 33.7696 9.74247 32.1726 9.21833 30.5551C10.5522 29.5887 11.9957 28.5384 13.264 27.6181H8.2673L6.72047 22.865ZM17.7571 7.54619L16.0997 12.6463C14.3297 12.6432 12.4133 12.6504 10.7303 12.6504C12.184 13.7069 13.6776 14.7941 15.0709 15.8045C14.5263 17.4864 13.9325 19.3107 13.4135 20.9087C14.8047 19.8932 16.284 18.8275 17.7581 17.7577L22.0987 20.9087C21.5592 19.2574 21.0043 17.5417 20.4413 15.8045C21.8745 14.7664 23.4244 13.6383 24.7859 12.6504H19.4196L17.7571 7.54619ZM56.2179 7.54619L54.5605 12.6463C52.7905 12.6432 50.8742 12.6504 49.1912 12.6504C50.6448 13.7069 52.1384 14.7941 53.5317 15.8045C52.9871 17.4864 52.3933 19.3107 51.8743 20.9087C53.2655 19.8932 54.7448 18.8275 56.219 17.7577L60.5595 20.9087C60.02 19.2574 59.4651 17.5417 58.9021 15.8045C60.3353 14.7664 61.8852 13.6383 63.2467 12.6504H57.8804L56.2179 7.54619ZM36.9896 0.703705L35.1162 6.46617C33.1169 6.46208 30.9507 6.47027 29.0486 6.47129C30.6917 7.66494 32.3788 8.89339 33.9532 10.0359C33.338 11.9359 32.6664 13.9966 32.0798 15.8024C33.6512 14.6548 35.323 13.451 36.9885 12.242L41.8931 15.8024C41.283 13.9362 40.6565 11.9983 40.0197 10.0359C41.6393 8.86371 43.3898 7.58816 44.9284 6.47129H38.866" fill="black"/>
</svg>
