<svg width="403" height="103" viewBox="0 0 403 103" fill="none" xmlns="http://www.w3.org/2000/svg">
<path d="M36.9548 23.6546C20.8344 23.6546 12.4512 36.2166 12.5935 48.7786C12.7911 67.0631 30.8719 73.9025 36.9548 99.0223C43.051 73.8984 61.3498 66.6618 61.3498 48.7786C61.3498 36.2166 51.8815 23.6546 36.9629 23.6546H36.9548ZM36.9885 29.9351L51.2253 44.1719H22.7518L36.9885 29.9351V29.9351ZM26.9142 45.9552H47.0383V66.1038H26.9142V45.9552ZM30.3426 49.3836V55.0365H35.9699V49.3836H30.3426ZM37.9846 49.3836V55.0365H43.6375V49.3836H37.9846ZM30.3426 57.0256V62.6785H35.9699V57.0256H30.3426ZM37.9846 57.0256V62.6785H43.6375V57.0256H37.9846ZM67.2535 26.865L65.7098 31.614C64.0616 31.6109 62.2773 31.6181 60.71 31.6181C62.0633 32.6019 63.4545 33.6143 64.7516 34.5551C64.2448 36.1214 63.692 37.8197 63.2078 39.3072C64.5028 38.3623 65.8807 37.3693 67.2535 36.3732C68.601 37.3509 69.9482 38.3289 71.2951 39.3072C70.7925 37.7696 70.2755 36.1726 69.7514 34.5551C71.0853 33.5887 72.5287 32.5384 73.7971 31.6181H68.8004L67.2535 26.865ZM6.72047 26.865L5.17672 31.614C3.52854 31.6109 1.74421 31.6181 0.17691 31.6181C1.53026 32.6019 2.92148 33.6143 4.21852 34.5551C3.71178 36.1214 3.15898 37.8197 2.67477 39.3072C3.96976 38.3623 5.34767 37.3693 6.72047 36.3732C8.06792 37.3509 9.41513 38.3289 10.7621 39.3072C10.2594 37.7696 9.74247 36.1726 9.21833 34.5551C10.5522 33.5887 11.9957 32.5384 13.264 31.6181H8.2673L6.72047 26.865ZM17.7571 11.5462L16.0997 16.6463C14.3297 16.6432 12.4133 16.6504 10.7303 16.6504C12.184 17.7069 13.6776 18.7941 15.0709 19.8045C14.5263 21.4864 13.9325 23.3107 13.4135 24.9087C14.8047 23.8932 16.284 22.8275 17.7581 21.7577L22.0987 24.9087C21.5592 23.2574 21.0043 21.5417 20.4413 19.8045C21.8745 18.7664 23.4244 17.6383 24.7859 16.6504H19.4196L17.7571 11.5462ZM56.2179 11.5462L54.5605 16.6463C52.7905 16.6432 50.8742 16.6504 49.1912 16.6504C50.6448 17.7069 52.1384 18.7941 53.5317 19.8045C52.9871 21.4864 52.3933 23.3107 51.8743 24.9087C53.2655 23.8932 54.7448 22.8275 56.219 21.7577L60.5595 24.9087C60.02 23.2574 59.4651 21.5417 58.9021 19.8045C60.3353 18.7664 61.8852 17.6383 63.2467 16.6504H57.8804L56.2179 11.5462ZM36.9896 4.7037L35.1162 10.4662C33.1169 10.4621 30.9507 10.4703 29.0486 10.4713C30.6917 11.6649 32.3788 12.8934 33.9532 14.0359C33.338 15.9359 32.6664 17.9966 32.0798 19.8024C33.6512 18.6548 35.323 17.451 36.9885 16.242L41.8931 19.8024C41.283 17.9362 40.6565 15.9983 40.0197 14.0359C41.6393 12.8637 43.3898 11.5882 44.9284 10.4713H38.866" fill="black"/>
<path d="M88.112 47.472C88.112 43.0347 89.072 39.088 90.992 35.632C92.912 32.1333 95.5787 29.424 98.992 27.504C102.448 25.5413 106.352 24.56 110.704 24.56C116.037 24.56 120.603 25.968 124.4 28.784C128.197 31.6 130.736 35.44 132.016 40.304H119.984C119.088 38.4267 117.808 36.9973 116.144 36.016C114.523 35.0347 112.667 34.544 110.576 34.544C107.205 34.544 104.475 35.7173 102.384 38.064C100.293 40.4107 99.248 43.5467 99.248 47.472C99.248 51.3973 100.293 54.5333 102.384 56.88C104.475 59.2267 107.205 60.4 110.576 60.4C112.667 60.4 114.523 59.9093 116.144 58.928C117.808 57.9467 119.088 56.5173 119.984 54.64H132.016C130.736 59.504 128.197 63.344 124.4 66.16C120.603 68.9333 116.037 70.32 110.704 70.32C106.352 70.32 102.448 69.36 98.992 67.44C95.5787 65.4773 92.912 62.768 90.992 59.312C89.072 55.856 88.112 51.9093 88.112 47.472ZM174.43 70L165.086 53.04H162.462V70H151.518V25.072H169.886C173.427 25.072 176.435 25.6907 178.91 26.928C181.427 28.1653 183.305 29.872 184.542 32.048C185.779 34.1813 186.398 36.5707 186.398 39.216C186.398 42.2027 185.545 44.8693 183.838 47.216C182.174 49.5627 179.699 51.2267 176.414 52.208L186.782 70H174.43ZM162.462 45.296H169.246C171.251 45.296 172.745 44.8053 173.726 43.824C174.75 42.8427 175.262 41.456 175.262 39.664C175.262 37.9573 174.75 36.6133 173.726 35.632C172.745 34.6507 171.251 34.16 169.246 34.16H162.462V45.296ZM217.012 25.072V70H206.068V25.072H217.012ZM264.943 46.96C267.546 47.5147 269.636 48.816 271.215 50.864C272.794 52.8693 273.583 55.1733 273.583 57.776C273.583 61.5307 272.26 64.5173 269.615 66.736C267.012 68.912 263.364 70 258.671 70H237.743V25.072H257.967C262.532 25.072 266.095 26.1173 268.655 28.208C271.258 30.2987 272.559 33.136 272.559 36.72C272.559 39.3653 271.855 41.5627 270.447 43.312C269.082 45.0613 267.247 46.2773 264.943 46.96ZM248.687 43.248H255.855C257.647 43.248 259.012 42.864 259.951 42.096C260.932 41.2853 261.423 40.112 261.423 38.576C261.423 37.04 260.932 35.8667 259.951 35.056C259.012 34.2453 257.647 33.84 255.855 33.84H248.687V43.248ZM256.751 61.168C258.586 61.168 259.994 60.7627 260.975 59.952C261.999 59.0987 262.511 57.8827 262.511 56.304C262.511 54.7253 261.978 53.488 260.911 52.592C259.887 51.696 258.458 51.248 256.623 51.248H248.687V61.168H256.751Z" fill="black"/>
<path d="M86.63 89.7C86.63 88.464 86.906 87.36 87.458 86.388C88.022 85.404 88.784 84.642 89.744 84.102C90.716 83.55 91.802 83.274 93.002 83.274C94.406 83.274 95.636 83.634 96.692 84.354C97.748 85.074 98.486 86.07 98.906 87.342H96.008C95.72 86.742 95.312 86.292 94.784 85.992C94.268 85.692 93.668 85.542 92.984 85.542C92.252 85.542 91.598 85.716 91.022 86.064C90.458 86.4 90.014 86.88 89.69 87.504C89.378 88.128 89.222 88.86 89.222 89.7C89.222 90.528 89.378 91.26 89.69 91.896C90.014 92.52 90.458 93.006 91.022 93.354C91.598 93.69 92.252 93.858 92.984 93.858C93.668 93.858 94.268 93.708 94.784 93.408C95.312 93.096 95.72 92.64 96.008 92.04H98.906C98.486 93.324 97.748 94.326 96.692 95.046C95.648 95.754 94.418 96.108 93.002 96.108C91.802 96.108 90.716 95.838 89.744 95.298C88.784 94.746 88.022 93.984 87.458 93.012C86.906 92.04 86.63 90.936 86.63 89.7ZM111.138 96L108.366 91.104H107.178V96H104.658V83.436H109.374C110.346 83.436 111.174 83.61 111.858 83.958C112.542 84.294 113.052 84.756 113.388 85.344C113.736 85.92 113.91 86.568 113.91 87.288C113.91 88.116 113.67 88.866 113.19 89.538C112.71 90.198 111.996 90.654 111.048 90.906L114.054 96H111.138ZM107.178 89.214H109.284C109.968 89.214 110.478 89.052 110.814 88.728C111.15 88.392 111.318 87.93 111.318 87.342C111.318 86.766 111.15 86.322 110.814 86.01C110.478 85.686 109.968 85.524 109.284 85.524H107.178V89.214ZM122.31 83.436V96H119.79V83.436H122.31ZM135.527 89.556C136.235 89.688 136.817 90.042 137.273 90.618C137.729 91.194 137.957 91.854 137.957 92.598C137.957 93.27 137.789 93.864 137.453 94.38C137.129 94.884 136.655 95.28 136.031 95.568C135.407 95.856 134.669 96 133.817 96H128.399V83.436H133.583C134.435 83.436 135.167 83.574 135.779 83.85C136.403 84.126 136.871 84.51 137.183 85.002C137.507 85.494 137.669 86.052 137.669 86.676C137.669 87.408 137.471 88.02 137.075 88.512C136.691 89.004 136.175 89.352 135.527 89.556ZM130.919 88.62H133.223C133.823 88.62 134.285 88.488 134.609 88.224C134.933 87.948 135.095 87.558 135.095 87.054C135.095 86.55 134.933 86.16 134.609 85.884C134.285 85.608 133.823 85.47 133.223 85.47H130.919V88.62ZM133.457 93.948C134.069 93.948 134.543 93.804 134.879 93.516C135.227 93.228 135.401 92.82 135.401 92.292C135.401 91.752 135.221 91.332 134.861 91.032C134.501 90.72 134.015 90.564 133.403 90.564H130.919V93.948H133.457ZM157.935 96L155.163 91.104H153.975V96H151.455V83.436H156.171C157.143 83.436 157.971 83.61 158.655 83.958C159.339 84.294 159.849 84.756 160.185 85.344C160.533 85.92 160.707 86.568 160.707 87.288C160.707 88.116 160.467 88.866 159.987 89.538C159.507 90.198 158.793 90.654 157.845 90.906L160.851 96H157.935ZM153.975 89.214H156.081C156.765 89.214 157.275 89.052 157.611 88.728C157.947 88.392 158.115 87.93 158.115 87.342C158.115 86.766 157.947 86.322 157.611 86.01C157.275 85.686 156.765 85.524 156.081 85.524H153.975V89.214ZM169.106 85.47V88.62H173.336V90.618H169.106V93.948H173.876V96H166.586V83.418H173.876V85.47H169.106ZM190.512 96H187.992L182.286 87.378V96H179.766V83.418H182.286L187.992 92.058V83.418H190.512V96ZM205.153 83.436V85.47H201.805V96H199.285V85.47H195.937V83.436H205.153ZM218.295 93.606H213.291L212.463 96H209.817L214.335 83.418H217.269L221.787 96H219.123L218.295 93.606ZM217.611 91.59L215.793 86.334L213.975 91.59H217.611ZM229.596 94.002H233.736V96H227.076V83.436H229.596V94.002ZM243.276 96.126C242.4 96.126 241.608 95.976 240.9 95.676C240.204 95.376 239.652 94.944 239.244 94.38C238.836 93.816 238.626 93.15 238.614 92.382H241.314C241.35 92.898 241.53 93.306 241.854 93.606C242.19 93.906 242.646 94.056 243.222 94.056C243.81 94.056 244.272 93.918 244.608 93.642C244.944 93.354 245.112 92.982 245.112 92.526C245.112 92.154 244.998 91.848 244.77 91.608C244.542 91.368 244.254 91.182 243.906 91.05C243.57 90.906 243.102 90.75 242.502 90.582C241.686 90.342 241.02 90.108 240.504 89.88C240 89.64 239.562 89.286 239.19 88.818C238.83 88.338 238.65 87.702 238.65 86.91C238.65 86.166 238.836 85.518 239.208 84.966C239.58 84.414 240.102 83.994 240.774 83.706C241.446 83.406 242.214 83.256 243.078 83.256C244.374 83.256 245.424 83.574 246.228 84.21C247.044 84.834 247.494 85.71 247.578 86.838H244.806C244.782 86.406 244.596 86.052 244.248 85.776C243.912 85.488 243.462 85.344 242.898 85.344C242.406 85.344 242.01 85.47 241.71 85.722C241.422 85.974 241.278 86.34 241.278 86.82C241.278 87.156 241.386 87.438 241.602 87.666C241.83 87.882 242.106 88.062 242.43 88.206C242.766 88.338 243.234 88.494 243.834 88.674C244.65 88.914 245.316 89.154 245.832 89.394C246.348 89.634 246.792 89.994 247.164 90.474C247.536 90.954 247.722 91.584 247.722 92.364C247.722 93.036 247.548 93.66 247.2 94.236C246.852 94.812 246.342 95.274 245.67 95.622C244.998 95.958 244.2 96.126 243.276 96.126ZM263.916 83.436V96H261.396V83.436H263.916ZM280.751 96H278.231L272.525 87.378V96H270.005V83.418H272.525L278.231 92.058V83.418H280.751V96ZM301.859 89.556C302.567 89.688 303.149 90.042 303.605 90.618C304.061 91.194 304.289 91.854 304.289 92.598C304.289 93.27 304.121 93.864 303.785 94.38C303.461 94.884 302.987 95.28 302.363 95.568C301.739 95.856 301.001 96 300.149 96H294.731V83.436H299.915C300.767 83.436 301.499 83.574 302.111 83.85C302.735 84.126 303.203 84.51 303.515 85.002C303.839 85.494 304.001 86.052 304.001 86.676C304.001 87.408 303.803 88.02 303.407 88.512C303.023 89.004 302.507 89.352 301.859 89.556ZM297.251 88.62H299.555C300.155 88.62 300.617 88.488 300.941 88.224C301.265 87.948 301.427 87.558 301.427 87.054C301.427 86.55 301.265 86.16 300.941 85.884C300.617 85.608 300.155 85.47 299.555 85.47H297.251V88.62ZM299.789 93.948C300.401 93.948 300.875 93.804 301.211 93.516C301.559 93.228 301.733 92.82 301.733 92.292C301.733 91.752 301.553 91.332 301.193 91.032C300.833 90.72 300.347 90.564 299.735 90.564H297.251V93.948H299.789ZM316.377 96L313.605 91.104H312.417V96H309.897V83.436H314.613C315.585 83.436 316.413 83.61 317.097 83.958C317.781 84.294 318.291 84.756 318.627 85.344C318.975 85.92 319.149 86.568 319.149 87.288C319.149 88.116 318.909 88.866 318.429 89.538C317.949 90.198 317.235 90.654 316.287 90.906L319.293 96H316.377ZM312.417 89.214H314.523C315.207 89.214 315.717 89.052 316.053 88.728C316.389 88.392 316.557 87.93 316.557 87.342C316.557 86.766 316.389 86.322 316.053 86.01C315.717 85.686 315.207 85.524 314.523 85.524H312.417V89.214ZM330.86 96.126C329.684 96.126 328.604 95.85 327.62 95.298C326.636 94.746 325.856 93.984 325.28 93.012C324.704 92.028 324.416 90.918 324.416 89.682C324.416 88.458 324.704 87.36 325.28 86.388C325.856 85.404 326.636 84.636 327.62 84.084C328.604 83.532 329.684 83.256 330.86 83.256C332.048 83.256 333.128 83.532 334.1 84.084C335.084 84.636 335.858 85.404 336.422 86.388C336.998 87.36 337.286 88.458 337.286 89.682C337.286 90.918 336.998 92.028 336.422 93.012C335.858 93.984 335.084 94.746 334.1 95.298C333.116 95.85 332.036 96.126 330.86 96.126ZM330.86 93.876C331.616 93.876 332.282 93.708 332.858 93.372C333.434 93.024 333.884 92.532 334.208 91.896C334.532 91.26 334.694 90.522 334.694 89.682C334.694 88.842 334.532 88.11 334.208 87.486C333.884 86.85 333.434 86.364 332.858 86.028C332.282 85.692 331.616 85.524 330.86 85.524C330.104 85.524 329.432 85.692 328.844 86.028C328.268 86.364 327.818 86.85 327.494 87.486C327.17 88.11 327.008 88.842 327.008 89.682C327.008 90.522 327.17 91.26 327.494 91.896C327.818 92.532 328.268 93.024 328.844 93.372C329.432 93.708 330.104 93.876 330.86 93.876ZM359.555 83.436L356.045 96H353.075L350.717 87.054L348.251 96L345.299 96.018L341.915 83.436H344.615L346.829 93.192L349.385 83.436H352.193L354.605 93.138L356.837 83.436H359.555ZM369.139 96.126C368.263 96.126 367.471 95.976 366.763 95.676C366.067 95.376 365.515 94.944 365.107 94.38C364.699 93.816 364.489 93.15 364.477 92.382H367.177C367.213 92.898 367.393 93.306 367.717 93.606C368.053 93.906 368.509 94.056 369.085 94.056C369.673 94.056 370.135 93.918 370.471 93.642C370.807 93.354 370.975 92.982 370.975 92.526C370.975 92.154 370.861 91.848 370.633 91.608C370.405 91.368 370.117 91.182 369.769 91.05C369.433 90.906 368.965 90.75 368.365 90.582C367.549 90.342 366.883 90.108 366.367 89.88C365.863 89.64 365.425 89.286 365.053 88.818C364.693 88.338 364.513 87.702 364.513 86.91C364.513 86.166 364.699 85.518 365.071 84.966C365.443 84.414 365.965 83.994 366.637 83.706C367.309 83.406 368.077 83.256 368.941 83.256C370.237 83.256 371.287 83.574 372.091 84.21C372.907 84.834 373.357 85.71 373.441 86.838H370.669C370.645 86.406 370.459 86.052 370.111 85.776C369.775 85.488 369.325 85.344 368.761 85.344C368.269 85.344 367.873 85.47 367.573 85.722C367.285 85.974 367.141 86.34 367.141 86.82C367.141 87.156 367.249 87.438 367.465 87.666C367.693 87.882 367.969 88.062 368.293 88.206C368.629 88.338 369.097 88.494 369.697 88.674C370.513 88.914 371.179 89.154 371.695 89.394C372.211 89.634 372.655 89.994 373.027 90.474C373.399 90.954 373.585 91.584 373.585 92.364C373.585 93.036 373.411 93.66 373.063 94.236C372.715 94.812 372.205 95.274 371.533 95.622C370.861 95.958 370.063 96.126 369.139 96.126ZM381.889 85.47V88.62H386.119V90.618H381.889V93.948H386.659V96H379.369V83.418H386.659V85.47H381.889ZM399.029 96L396.257 91.104H395.069V96H392.549V83.436H397.265C398.237 83.436 399.065 83.61 399.749 83.958C400.433 84.294 400.943 84.756 401.279 85.344C401.627 85.92 401.801 86.568 401.801 87.288C401.801 88.116 401.561 88.866 401.081 89.538C400.601 90.198 399.887 90.654 398.939 90.906L401.945 96H399.029ZM395.069 89.214H397.175C397.859 89.214 398.369 89.052 398.705 88.728C399.041 88.392 399.209 87.93 399.209 87.342C399.209 86.766 399.041 86.322 398.705 86.01C398.369 85.686 397.859 85.524 397.175 85.524H395.069V89.214Z" fill="black"/>
</svg>
