<svg width="316" height="14" viewBox="0 0 316 14" fill="none" xmlns="http://www.w3.org/2000/svg">
<path d="M0.63 6.7C0.63 5.464 0.906 4.36 1.458 3.388C2.022 2.404 2.784 1.642 3.744 1.102C4.716 0.55 5.802 0.274 7.002 0.274C8.406 0.274 9.636 0.634 10.692 1.354C11.748 2.074 12.486 3.07 12.906 4.342H10.008C9.72 3.742 9.312 3.292 8.784 2.992C8.268 2.692 7.668 2.542 6.984 2.542C6.252 2.542 5.598 2.716 5.022 3.064C4.458 3.4 4.014 3.88 3.69 4.504C3.378 5.128 3.222 5.86 3.222 6.7C3.222 7.528 3.378 8.26 3.69 8.896C4.014 9.52 4.458 10.006 5.022 10.354C5.598 10.69 6.252 10.858 6.984 10.858C7.668 10.858 8.268 10.708 8.784 10.408C9.312 10.096 9.72 9.64 10.008 9.04H12.906C12.486 10.324 11.748 11.326 10.692 12.046C9.648 12.754 8.418 13.108 7.002 13.108C5.802 13.108 4.716 12.838 3.744 12.298C2.784 11.746 2.022 10.984 1.458 10.012C0.906 9.04 0.63 7.936 0.63 6.7ZM25.1384 13L22.3664 8.104H21.1784V13H18.6584V0.436H23.3744C24.3464 0.436 25.1744 0.61 25.8584 0.957999C26.5424 1.294 27.0524 1.756 27.3884 2.344C27.7364 2.92 27.9104 3.568 27.9104 4.288C27.9104 5.116 27.6704 5.866 27.1904 6.538C26.7104 7.198 25.9964 7.654 25.0484 7.906L28.0544 13H25.1384ZM21.1784 6.214H23.2844C23.9684 6.214 24.4784 6.052 24.8144 5.728C25.1504 5.392 25.3184 4.93 25.3184 4.342C25.3184 3.766 25.1504 3.322 24.8144 3.01C24.4784 2.686 23.9684 2.524 23.2844 2.524H21.1784V6.214ZM36.3097 0.436V13H33.7897V0.436H36.3097ZM49.5274 6.556C50.2354 6.688 50.8174 7.042 51.2734 7.618C51.7294 8.194 51.9574 8.854 51.9574 9.598C51.9574 10.27 51.7894 10.864 51.4534 11.38C51.1294 11.884 50.6554 12.28 50.0314 12.568C49.4074 12.856 48.6694 13 47.8174 13H42.3994V0.436H47.5834C48.4354 0.436 49.1674 0.574 49.7794 0.85C50.4034 1.126 50.8714 1.51 51.1834 2.002C51.5074 2.494 51.6694 3.052 51.6694 3.676C51.6694 4.408 51.4714 5.02 51.0754 5.512C50.6914 6.004 50.1754 6.352 49.5274 6.556ZM44.9194 5.62H47.2234C47.8234 5.62 48.2854 5.488 48.6094 5.224C48.9334 4.948 49.0954 4.558 49.0954 4.054C49.0954 3.55 48.9334 3.16 48.6094 2.884C48.2854 2.608 47.8234 2.47 47.2234 2.47H44.9194V5.62ZM47.4574 10.948C48.0694 10.948 48.5434 10.804 48.8794 10.516C49.2274 10.228 49.4014 9.82 49.4014 9.292C49.4014 8.752 49.2214 8.332 48.8614 8.032C48.5014 7.72 48.0154 7.564 47.4034 7.564H44.9194V10.948H47.4574ZM71.9349 13L69.1629 8.104H67.9749V13H65.4549V0.436H70.1709C71.1429 0.436 71.9709 0.61 72.6549 0.957999C73.3389 1.294 73.8489 1.756 74.1849 2.344C74.5329 2.92 74.7069 3.568 74.7069 4.288C74.7069 5.116 74.4669 5.866 73.9869 6.538C73.5069 7.198 72.7929 7.654 71.8449 7.906L74.8509 13H71.9349ZM67.9749 6.214H70.0809C70.7649 6.214 71.2749 6.052 71.6109 5.728C71.9469 5.392 72.1149 4.93 72.1149 4.342C72.1149 3.766 71.9469 3.322 71.6109 3.01C71.2749 2.686 70.7649 2.524 70.0809 2.524H67.9749V6.214ZM83.1061 2.47V5.62H87.3361V7.618H83.1061V10.948H87.8761V13H80.5861V0.417999H87.8761V2.47H83.1061ZM104.512 13H101.992L96.2862 4.378V13H93.7662V0.417999H96.2862L101.992 9.058V0.417999H104.512V13ZM119.153 0.436V2.47H115.805V13H113.285V2.47H109.937V0.436H119.153ZM132.295 10.606H127.291L126.463 13H123.817L128.335 0.417999H131.269L135.787 13H133.123L132.295 10.606ZM131.611 8.59L129.793 3.334L127.975 8.59H131.611ZM143.596 11.002H147.736V13H141.076V0.436H143.596V11.002ZM157.276 13.126C156.4 13.126 155.608 12.976 154.9 12.676C154.204 12.376 153.652 11.944 153.244 11.38C152.836 10.816 152.626 10.15 152.614 9.382H155.314C155.35 9.898 155.53 10.306 155.854 10.606C156.19 10.906 156.646 11.056 157.222 11.056C157.81 11.056 158.272 10.918 158.608 10.642C158.944 10.354 159.112 9.982 159.112 9.526C159.112 9.154 158.998 8.848 158.77 8.608C158.542 8.368 158.254 8.182 157.906 8.05C157.57 7.906 157.102 7.75 156.502 7.582C155.686 7.342 155.02 7.108 154.504 6.88C154 6.64 153.562 6.286 153.19 5.818C152.83 5.338 152.65 4.702 152.65 3.91C152.65 3.166 152.836 2.518 153.208 1.966C153.58 1.414 154.102 0.993999 154.774 0.705999C155.446 0.406 156.214 0.256 157.078 0.256C158.374 0.256 159.424 0.574 160.228 1.21C161.044 1.834 161.494 2.71 161.578 3.838H158.806C158.782 3.406 158.596 3.052 158.248 2.776C157.912 2.488 157.462 2.344 156.898 2.344C156.406 2.344 156.01 2.47 155.71 2.722C155.422 2.974 155.278 3.34 155.278 3.82C155.278 4.156 155.386 4.438 155.602 4.666C155.83 4.882 156.106 5.062 156.43 5.206C156.766 5.338 157.234 5.494 157.834 5.674C158.65 5.914 159.316 6.154 159.832 6.394C160.348 6.634 160.792 6.994 161.164 7.474C161.536 7.954 161.722 8.584 161.722 9.364C161.722 10.036 161.548 10.66 161.2 11.236C160.852 11.812 160.342 12.274 159.67 12.622C158.998 12.958 158.2 13.126 157.276 13.126ZM177.916 0.436V13H175.396V0.436H177.916ZM194.751 13H192.231L186.525 4.378V13H184.005V0.417999H186.525L192.231 9.058V0.417999H194.751V13ZM215.859 6.556C216.567 6.688 217.149 7.042 217.605 7.618C218.061 8.194 218.289 8.854 218.289 9.598C218.289 10.27 218.121 10.864 217.785 11.38C217.461 11.884 216.987 12.28 216.363 12.568C215.739 12.856 215.001 13 214.149 13H208.731V0.436H213.915C214.767 0.436 215.499 0.574 216.111 0.85C216.735 1.126 217.203 1.51 217.515 2.002C217.839 2.494 218.001 3.052 218.001 3.676C218.001 4.408 217.803 5.02 217.407 5.512C217.023 6.004 216.507 6.352 215.859 6.556ZM211.251 5.62H213.555C214.155 5.62 214.617 5.488 214.941 5.224C215.265 4.948 215.427 4.558 215.427 4.054C215.427 3.55 215.265 3.16 214.941 2.884C214.617 2.608 214.155 2.47 213.555 2.47H211.251V5.62ZM213.789 10.948C214.401 10.948 214.875 10.804 215.211 10.516C215.559 10.228 215.733 9.82 215.733 9.292C215.733 8.752 215.553 8.332 215.193 8.032C214.833 7.72 214.347 7.564 213.735 7.564H211.251V10.948H213.789ZM230.377 13L227.605 8.104H226.417V13H223.897V0.436H228.613C229.585 0.436 230.413 0.61 231.097 0.957999C231.781 1.294 232.291 1.756 232.627 2.344C232.975 2.92 233.149 3.568 233.149 4.288C233.149 5.116 232.909 5.866 232.429 6.538C231.949 7.198 231.235 7.654 230.287 7.906L233.293 13H230.377ZM226.417 6.214H228.523C229.207 6.214 229.717 6.052 230.053 5.728C230.389 5.392 230.557 4.93 230.557 4.342C230.557 3.766 230.389 3.322 230.053 3.01C229.717 2.686 229.207 2.524 228.523 2.524H226.417V6.214ZM244.86 13.126C243.684 13.126 242.604 12.85 241.62 12.298C240.636 11.746 239.856 10.984 239.28 10.012C238.704 9.028 238.416 7.918 238.416 6.682C238.416 5.458 238.704 4.36 239.28 3.388C239.856 2.404 240.636 1.636 241.62 1.084C242.604 0.532 243.684 0.256 244.86 0.256C246.048 0.256 247.128 0.532 248.1 1.084C249.084 1.636 249.858 2.404 250.422 3.388C250.998 4.36 251.286 5.458 251.286 6.682C251.286 7.918 250.998 9.028 250.422 10.012C249.858 10.984 249.084 11.746 248.1 12.298C247.116 12.85 246.036 13.126 244.86 13.126ZM244.86 10.876C245.616 10.876 246.282 10.708 246.858 10.372C247.434 10.024 247.884 9.532 248.208 8.896C248.532 8.26 248.694 7.522 248.694 6.682C248.694 5.842 248.532 5.11 248.208 4.486C247.884 3.85 247.434 3.364 246.858 3.028C246.282 2.692 245.616 2.524 244.86 2.524C244.104 2.524 243.432 2.692 242.844 3.028C242.268 3.364 241.818 3.85 241.494 4.486C241.17 5.11 241.008 5.842 241.008 6.682C241.008 7.522 241.17 8.26 241.494 8.896C241.818 9.532 242.268 10.024 242.844 10.372C243.432 10.708 244.104 10.876 244.86 10.876ZM273.555 0.436L270.045 13H267.075L264.717 4.054L262.251 13L259.299 13.018L255.915 0.436H258.615L260.829 10.192L263.385 0.436H266.193L268.605 10.138L270.837 0.436H273.555ZM283.139 13.126C282.263 13.126 281.471 12.976 280.763 12.676C280.067 12.376 279.515 11.944 279.107 11.38C278.699 10.816 278.489 10.15 278.477 9.382H281.177C281.213 9.898 281.393 10.306 281.717 10.606C282.053 10.906 282.509 11.056 283.085 11.056C283.673 11.056 284.135 10.918 284.471 10.642C284.807 10.354 284.975 9.982 284.975 9.526C284.975 9.154 284.861 8.848 284.633 8.608C284.405 8.368 284.117 8.182 283.769 8.05C283.433 7.906 282.965 7.75 282.365 7.582C281.549 7.342 280.883 7.108 280.367 6.88C279.863 6.64 279.425 6.286 279.053 5.818C278.693 5.338 278.513 4.702 278.513 3.91C278.513 3.166 278.699 2.518 279.071 1.966C279.443 1.414 279.965 0.993999 280.637 0.705999C281.309 0.406 282.077 0.256 282.941 0.256C284.237 0.256 285.287 0.574 286.091 1.21C286.907 1.834 287.357 2.71 287.441 3.838H284.669C284.645 3.406 284.459 3.052 284.111 2.776C283.775 2.488 283.325 2.344 282.761 2.344C282.269 2.344 281.873 2.47 281.573 2.722C281.285 2.974 281.141 3.34 281.141 3.82C281.141 4.156 281.249 4.438 281.465 4.666C281.693 4.882 281.969 5.062 282.293 5.206C282.629 5.338 283.097 5.494 283.697 5.674C284.513 5.914 285.179 6.154 285.695 6.394C286.211 6.634 286.655 6.994 287.027 7.474C287.399 7.954 287.585 8.584 287.585 9.364C287.585 10.036 287.411 10.66 287.063 11.236C286.715 11.812 286.205 12.274 285.533 12.622C284.861 12.958 284.063 13.126 283.139 13.126ZM295.889 2.47V5.62H300.119V7.618H295.889V10.948H300.659V13H293.369V0.417999H300.659V2.47H295.889ZM313.029 13L310.257 8.104H309.069V13H306.549V0.436H311.265C312.237 0.436 313.065 0.61 313.749 0.957999C314.433 1.294 314.943 1.756 315.279 2.344C315.627 2.92 315.801 3.568 315.801 4.288C315.801 5.116 315.561 5.866 315.081 6.538C314.601 7.198 313.887 7.654 312.939 7.906L315.945 13H313.029ZM309.069 6.214H311.175C311.859 6.214 312.369 6.052 312.705 5.728C313.041 5.392 313.209 4.93 313.209 4.342C313.209 3.766 313.041 3.322 312.705 3.01C312.369 2.686 311.859 2.524 311.175 2.524H309.069V6.214Z" fill="black"/>
</svg>
