<svg width="186" height="47" viewBox="0 0 186 47" fill="none" xmlns="http://www.w3.org/2000/svg">
<path d="M0.112 23.472C0.112 19.0347 1.072 15.088 2.992 11.632C4.912 8.13333 7.57867 5.424 10.992 3.504C14.448 1.54133 18.352 0.559998 22.704 0.559998C28.0373 0.559998 32.6027 1.968 36.4 4.784C40.1973 7.6 42.736 11.44 44.016 16.304H31.984C31.088 14.4267 29.808 12.9973 28.144 12.016C26.5227 11.0347 24.6667 10.544 22.576 10.544C19.2053 10.544 16.4747 11.7173 14.384 14.064C12.2933 16.4107 11.248 19.5467 11.248 23.472C11.248 27.3973 12.2933 30.5333 14.384 32.88C16.4747 35.2267 19.2053 36.4 22.576 36.4C24.6667 36.4 26.5227 35.9093 28.144 34.928C29.808 33.9467 31.088 32.5173 31.984 30.64H44.016C42.736 35.504 40.1973 39.344 36.4 42.16C32.6027 44.9333 28.0373 46.32 22.704 46.32C18.352 46.32 14.448 45.36 10.992 43.44C7.57867 41.4773 4.912 38.768 2.992 35.312C1.072 31.856 0.112 27.9093 0.112 23.472ZM86.43 46L77.086 29.04H74.462V46H63.518V1.072H81.886C85.4273 1.072 88.4353 1.69066 90.91 2.928C93.4273 4.16533 95.3047 5.872 96.542 8.048C97.7793 10.1813 98.398 12.5707 98.398 15.216C98.398 18.2027 97.5447 20.8693 95.838 23.216C94.174 25.5627 91.6993 27.2267 88.414 28.208L98.782 46H86.43ZM74.462 21.296H81.246C83.2513 21.296 84.7447 20.8053 85.726 19.824C86.75 18.8427 87.262 17.456 87.262 15.664C87.262 13.9573 86.75 12.6133 85.726 11.632C84.7447 10.6507 83.2513 10.16 81.246 10.16H74.462V21.296ZM129.012 1.072V46H118.068V1.072H129.012ZM176.943 22.96C179.546 23.5147 181.636 24.816 183.215 26.864C184.794 28.8693 185.583 31.1733 185.583 33.776C185.583 37.5307 184.26 40.5173 181.615 42.736C179.012 44.912 175.364 46 170.671 46H149.743V1.072H169.967C174.532 1.072 178.095 2.11733 180.655 4.208C183.258 6.29866 184.559 9.136 184.559 12.72C184.559 15.3653 183.855 17.5627 182.447 19.312C181.082 21.0613 179.247 22.2773 176.943 22.96ZM160.687 19.248H167.855C169.647 19.248 171.012 18.864 171.951 18.096C172.932 17.2853 173.423 16.112 173.423 14.576C173.423 13.04 172.932 11.8667 171.951 11.056C171.012 10.2453 169.647 9.84 167.855 9.84H160.687V19.248ZM168.751 37.168C170.586 37.168 171.994 36.7627 172.975 35.952C173.999 35.0987 174.511 33.8827 174.511 32.304C174.511 30.7253 173.978 29.488 172.911 28.592C171.887 27.696 170.458 27.248 168.623 27.248H160.687V37.168H168.751Z" fill="black"/>
</svg>
